<?xml version="1.0" encoding="UTF-8" ?>
<svg version="1.1" width="48" height="48" xmlns="http://www.w3.org/2000/svg" shape-rendering="crispEdges">
<rect x="0" y="0" width="48" height="3" fill="#45283C" />
<rect x="0" y="3" width="30" height="13" fill="#45283C" />
<rect x="30" y="3" width="1" height="3" fill="#9BADB7" />
<rect x="31" y="3" width="5" height="1" fill="#45283C" />
<rect x="36" y="3" width="1" height="3" fill="#9BADB7" />
<rect x="37" y="3" width="11" height="14" fill="#45283C" />
<rect x="31" y="4" width="5" height="1" fill="#9BADB7" />
<rect x="31" y="5" width="5" height="1" fill="#45283C" />
<rect x="30" y="6" width="3" height="2" fill="#45283C" />
<rect x="33" y="6" width="1" height="2" fill="#AC3232" />
<rect x="34" y="6" width="3" height="2" fill="#45283C" />
<rect x="30" y="8" width="2" height="2" fill="#45283C" />
<rect x="32" y="8" width="1" height="2" fill="#AC3232" />
<rect x="33" y="8" width="1" height="40" fill="#45283C" />
<rect x="34" y="8" width="1" height="3" fill="#AC3232" />
<rect x="35" y="8" width="2" height="3" fill="#45283C" />
<rect x="30" y="10" width="1" height="3" fill="#45283C" />
<rect x="31" y="10" width="1" height="3" fill="#AC3232" />
<rect x="32" y="10" width="1" height="38" fill="#45283C" />
<rect x="34" y="11" width="1" height="37" fill="#45283C" />
<rect x="35" y="11" width="1" height="3" fill="#AC3232" />
<rect x="36" y="11" width="1" height="3" fill="#45283C" />
<rect x="30" y="13" width="1" height="3" fill="#5B6EE1" />
<rect x="31" y="13" width="1" height="35" fill="#45283C" />
<rect x="35" y="14" width="1" height="34" fill="#45283C" />
<rect x="36" y="14" width="1" height="3" fill="#5B6EE1" />
<rect x="0" y="16" width="29" height="2" fill="#45283C" />
<rect x="29" y="16" width="1" height="2" fill="#5B6EE1" />
<rect x="30" y="16" width="1" height="32" fill="#45283C" />
<rect x="36" y="17" width="1" height="31" fill="#45283C" />
<rect x="37" y="17" width="1" height="3" fill="#5B6EE1" />
<rect x="38" y="17" width="10" height="3" fill="#45283C" />
<rect x="0" y="18" width="28" height="3" fill="#45283C" />
<rect x="28" y="18" width="1" height="3" fill="#5B6EE1" />
<rect x="29" y="18" width="1" height="30" fill="#45283C" />
<rect x="37" y="20" width="1" height="28" fill="#45283C" />
<rect x="38" y="20" width="1" height="2" fill="#5B6EE1" />
<rect x="39" y="20" width="9" height="2" fill="#45283C" />
<rect x="0" y="21" width="27" height="2" fill="#45283C" />
<rect x="27" y="21" width="1" height="2" fill="#5B6EE1" />
<rect x="28" y="21" width="1" height="27" fill="#45283C" />
<rect x="38" y="22" width="1" height="26" fill="#45283C" />
<rect x="39" y="22" width="1" height="3" fill="#5B6EE1" />
<rect x="40" y="22" width="8" height="3" fill="#45283C" />
<rect x="0" y="23" width="26" height="1" fill="#45283C" />
<rect x="26" y="23" width="1" height="3" fill="#5B6EE1" />
<rect x="27" y="23" width="1" height="25" fill="#45283C" />
<rect x="0" y="24" width="10" height="1" fill="#45283C" />
<rect x="10" y="24" width="1" height="1" fill="#5B6EE1" />
<rect x="11" y="24" width="15" height="1" fill="#45283C" />
<rect x="0" y="25" width="8" height="1" fill="#45283C" />
<rect x="8" y="25" width="2" height="1" fill="#5B6EE1" />
<rect x="10" y="25" width="1" height="23" fill="#45283C" />
<rect x="11" y="25" width="1" height="1" fill="#5B6EE1" />
<rect x="12" y="25" width="14" height="1" fill="#45283C" />
<rect x="39" y="25" width="1" height="23" fill="#45283C" />
<rect x="40" y="25" width="1" height="3" fill="#5B6EE1" />
<rect x="41" y="25" width="7" height="3" fill="#45283C" />
<rect x="0" y="26" width="6" height="1" fill="#45283C" />
<rect x="6" y="26" width="2" height="1" fill="#5B6EE1" />
<rect x="8" y="26" width="2" height="22" fill="#45283C" />
<rect x="11" y="26" width="1" height="22" fill="#45283C" />
<rect x="12" y="26" width="1" height="1" fill="#5B6EE1" />
<rect x="13" y="26" width="12" height="1" fill="#45283C" />
<rect x="25" y="26" width="1" height="2" fill="#5B6EE1" />
<rect x="26" y="26" width="1" height="22" fill="#45283C" />
<rect x="0" y="27" width="5" height="1" fill="#45283C" />
<rect x="5" y="27" width="1" height="1" fill="#5B6EE1" />
<rect x="6" y="27" width="2" height="21" fill="#45283C" />
<rect x="12" y="27" width="1" height="21" fill="#45283C" />
<rect x="13" y="27" width="1" height="2" fill="#5B6EE1" />
<rect x="14" y="27" width="11" height="1" fill="#45283C" />
<rect x="0" y="28" width="3" height="1" fill="#45283C" />
<rect x="3" y="28" width="2" height="1" fill="#5B6EE1" />
<rect x="5" y="28" width="1" height="20" fill="#45283C" />
<rect x="14" y="28" width="10" height="1" fill="#45283C" />
<rect x="24" y="28" width="1" height="3" fill="#5B6EE1" />
<rect x="25" y="28" width="1" height="20" fill="#45283C" />
<rect x="40" y="28" width="1" height="20" fill="#45283C" />
<rect x="41" y="28" width="1" height="3" fill="#5B6EE1" />
<rect x="42" y="28" width="6" height="2" fill="#45283C" />
<rect x="0" y="29" width="1" height="1" fill="#45283C" />
<rect x="1" y="29" width="2" height="1" fill="#5B6EE1" />
<rect x="3" y="29" width="2" height="19" fill="#45283C" />
<rect x="13" y="29" width="1" height="19" fill="#45283C" />
<rect x="14" y="29" width="1" height="1" fill="#5B6EE1" />
<rect x="15" y="29" width="9" height="1" fill="#45283C" />
<rect x="0" y="30" width="1" height="1" fill="#5B6EE1" />
<rect x="1" y="30" width="2" height="18" fill="#45283C" />
<rect x="14" y="30" width="1" height="18" fill="#45283C" />
<rect x="15" y="30" width="1" height="1" fill="#5B6EE1" />
<rect x="16" y="30" width="8" height="1" fill="#45283C" />
<rect x="42" y="30" width="3" height="1" fill="#45283C" />
<rect x="45" y="30" width="2" height="2" fill="#5B6EE1" />
<rect x="47" y="30" width="1" height="2" fill="#45283C" />
<rect x="0" y="31" width="1" height="17" fill="#45283C" />
<rect x="15" y="31" width="1" height="17" fill="#45283C" />
<rect x="16" y="31" width="1" height="1" fill="#5B6EE1" />
<rect x="17" y="31" width="6" height="1" fill="#45283C" />
<rect x="23" y="31" width="1" height="3" fill="#5B6EE1" />
<rect x="24" y="31" width="1" height="17" fill="#45283C" />
<rect x="41" y="31" width="1" height="17" fill="#45283C" />
<rect x="42" y="31" width="1" height="3" fill="#5B6EE1" />
<rect x="43" y="31" width="2" height="1" fill="#45283C" />
<rect x="16" y="32" width="1" height="16" fill="#45283C" />
<rect x="17" y="32" width="1" height="1" fill="#5B6EE1" />
<rect x="18" y="32" width="5" height="1" fill="#45283C" />
<rect x="43" y="32" width="1" height="2" fill="#45283C" />
<rect x="44" y="32" width="1" height="2" fill="#5B6EE1" />
<rect x="45" y="32" width="2" height="16" fill="#45283C" />
<rect x="47" y="32" width="1" height="2" fill="#5B6EE1" />
<rect x="17" y="33" width="1" height="15" fill="#45283C" />
<rect x="18" y="33" width="1" height="2" fill="#5B6EE1" />
<rect x="19" y="33" width="4" height="1" fill="#45283C" />
<rect x="19" y="34" width="3" height="1" fill="#45283C" />
<rect x="22" y="34" width="1" height="2" fill="#5B6EE1" />
<rect x="23" y="34" width="1" height="14" fill="#45283C" />
<rect x="42" y="34" width="1" height="14" fill="#45283C" />
<rect x="43" y="34" width="1" height="2" fill="#5B6EE1" />
<rect x="44" y="34" width="1" height="14" fill="#45283C" />
<rect x="47" y="34" width="1" height="14" fill="#45283C" />
<rect x="18" y="35" width="1" height="13" fill="#45283C" />
<rect x="19" y="35" width="1" height="1" fill="#5B6EE1" />
<rect x="20" y="35" width="2" height="1" fill="#45283C" />
<rect x="19" y="36" width="1" height="12" fill="#45283C" />
<rect x="20" y="36" width="2" height="1" fill="#5B6EE1" />
<rect x="22" y="36" width="1" height="12" fill="#45283C" />
<rect x="43" y="36" width="1" height="12" fill="#45283C" />
<rect x="20" y="37" width="1" height="11" fill="#45283C" />
<rect x="21" y="37" width="1" height="1" fill="#5B6EE1" />
<rect x="21" y="38" width="1" height="10" fill="#45283C" />
</svg>